<?xml version="1.0" encoding="UTF-8" standalone="no"?>
<!DOCTYPE svg PUBLIC "-//W3C//DTD SVG 1.1//EN" "http://www.w3.org/Graphics/SVG/1.1/DTD/svg11.dtd">
<svg width="100%" height="100%" viewBox="0 0 200 60" version="1.1" xmlns="http://www.w3.org/2000/svg" xmlns:xlink="http://www.w3.org/1999/xlink" xml:space="preserve" xmlns:serif="http://www.serif.com/" style="fill-rule:evenodd;clip-rule:evenodd;stroke-linecap:round;stroke-linejoin:round;stroke-miterlimit:1.5;">
    <path d="M190.883,26.283C190.883,26.283 193.082,28.116 195.399,31.032L191,31L184.075,28.153C184.075,28.153 182.973,27.341 183.156,26.831C183.21,26.158 184.096,26.032 184.096,26.032C187,26 190.883,26.283 190.883,26.283Z"/>
    <g transform="matrix(1,0,0,0.976485,0,1.26982)">
        <path d="M189.267,28.531C188.215,30.594 186.11,34.721 185,38C183.789,41.578 181.167,47.5 182,50C182.833,52.5 187.767,52.667 190,53C191.81,53.27 193.733,51.833 195.399,52C197.063,52.166 199.021,53.389 200,54" style="fill:none;stroke:url(#_Radial1);stroke-width:3.04px;"/>
    </g>
    <defs>
        <radialGradient id="_Radial1" cx="0" cy="0" r="1" gradientUnits="userSpaceOnUse" gradientTransform="matrix(18.1606,0,0,25.4691,181.839,41.2655)"><stop offset="0" style="stop-color:white;stop-opacity:0.38"/><stop offset="0.19" style="stop-color:rgb(166,166,166);stop-opacity:0.85"/><stop offset="0.39" style="stop-color:rgb(138,138,138);stop-opacity:1"/><stop offset="0.55" style="stop-color:rgb(67,67,67);stop-opacity:1"/><stop offset="1" style="stop-color:black;stop-opacity:1"/></radialGradient>
    </defs>
</svg>
