<?xml version="1.0" encoding="UTF-8" standalone="no"?>
<!DOCTYPE svg PUBLIC "-//W3C//DTD SVG 1.1//EN" "http://www.w3.org/Graphics/SVG/1.1/DTD/svg11.dtd">
<svg width="100%" height="100%" viewBox="0 0 24 24" version="1.1" xmlns="http://www.w3.org/2000/svg" xmlns:xlink="http://www.w3.org/1999/xlink" xml:space="preserve" xmlns:serif="http://www.serif.com/" style="fill-rule:evenodd;clip-rule:evenodd;stroke-linejoin:round;stroke-miterlimit:2;">
    <path d="M16,20L8,20L8,6L16,6M16.67,4L15,4L15,2L9,2L9,4L7.33,4C6.6,4 6,4.6 6,5.33L6,20.67C6,21.4 6.6,22 7.33,22L16.67,22C17.4,22 18,21.4 18,20.67L18,5.33C18,4.6 17.4,4 16.67,4Z" style="fill-rule:nonzero;"/>
    <g id="heat-wave.svg" transform="matrix(0.408506,0,0,0.408506,12,12.9021)">
        <g transform="matrix(1,0,0,1,-12,-12)">
            <path d="M8.5,4.5L5.4,9.5L8.5,14.7L5.2,20.5L3.4,19.6L6.1,14.7L3,9.5L6.7,3.6L8.5,4.5M14.7,4.4L11.6,9.5L14.7,14.5L11.4,20.3L9.6,19.4L12.3,14.5L9.2,9.5L12.9,3.5L14.7,4.4M21,4.4L17.9,9.5L21,14.5L17.7,20.3L15.9,19.4L18.6,14.5L15.5,9.5L19.2,3.5L21,4.4" style="fill-rule:nonzero;"/>
        </g>
    </g>
</svg>
