<?xml version="1.0" encoding="UTF-8" standalone="no"?>
<!DOCTYPE svg PUBLIC "-//W3C//DTD SVG 1.1//EN" "http://www.w3.org/Graphics/SVG/1.1/DTD/svg11.dtd">
<svg width="100%" height="100%" viewBox="0 0 24 24" version="1.1" xmlns="http://www.w3.org/2000/svg" xmlns:xlink="http://www.w3.org/1999/xlink" xml:space="preserve" xmlns:serif="http://www.serif.com/" style="fill-rule:evenodd;clip-rule:evenodd;stroke-linecap:round;stroke-linejoin:round;stroke-miterlimit:1.5;">
    <path d="M12,8.5L7,8.5L3,11C1.89,11 1,11.89 1,13L1,16L3.17,16C3.6,17.2 4.73,18 6,18C7.27,18 8.4,17.2 8.82,16L15.17,16C15.6,17.2 16.73,18 18,18C19.27,18 20.4,17.2 20.82,16L23,16L23,15C23,13.89 21.97,13.53 21,13L12,8.5M5.25,12L7.5,10L11.5,10L15.5,12L5.25,12M6,13.5C6.823,13.5 7.5,14.177 7.5,15C7.5,15.823 6.823,16.5 6,16.5C5.177,16.5 4.5,15.823 4.5,15C4.5,14.177 5.177,13.5 6,13.5M18,13.5C18.823,13.5 19.5,14.177 19.5,15C19.5,15.823 18.823,16.5 18,16.5C17.177,16.5 16.5,15.823 16.5,15C16.5,14.177 17.177,13.5 18,13.5Z" style="fill-rule:nonzero;"/>
    <path d="M7,9L2,7" style="fill:none;stroke:black;stroke-width:1px;"/>
</svg>
