<?xml version="1.0" encoding="UTF-8" standalone="no"?>
<!DOCTYPE svg PUBLIC "-//W3C//DTD SVG 1.1//EN" "http://www.w3.org/Graphics/SVG/1.1/DTD/svg11.dtd">
<svg width="100%" height="100%" viewBox="0 0 24 24" version="1.1" xmlns="http://www.w3.org/2000/svg" xmlns:xlink="http://www.w3.org/1999/xlink" xml:space="preserve" xmlns:serif="http://www.serif.com/" style="fill-rule:evenodd;clip-rule:evenodd;stroke-linejoin:round;stroke-miterlimit:2;">
    <g transform="matrix(0.75,0,0,0.75,-1.5,4)">
        <path d="M17.3,5C19,6.5 20,8.6 20,11C20,15.4 16.4,19 12,19C7.6,19 4,15.4 4,11C4,8.6 5.1,6.5 6.7,5L17.3,5M18,3L6,3L5.4,3.5C3.2,5.4 2,8.1 2,11C2,16.5 6.5,21 12,21C17.5,21 22,16.5 22,11C22,8.1 20.8,5.4 18.6,3.5L18,3M13,7.5C13,8.3 13.7,9 14.5,9C15.3,9 16,8.3 16,7.5C16,6.7 15.3,6 14.5,6C13.7,6 13,6.7 13,7.5M8,7.5C8,8.3 8.7,9 9.5,9C10.3,9 11,8.3 11,7.5C11,6.7 10.3,6 9.5,6C8.7,6 8,6.7 8,7.5M7,13C8.1,13 9,12.1 9,11C9,9.9 8.1,9 7,9C5.9,9 5,9.9 5,11C5,12.1 5.9,13 7,13M11.5,15C11.5,13.9 10.6,13 9.5,13C8.4,13 7.5,13.9 7.5,15C7.5,16.1 8.4,17 9.5,17C10.6,17 11.5,16.1 11.5,15M12,13C13.1,13 14,12.1 14,11C14,9.9 13.1,9 12,9C10.9,9 10,9.9 10,11C10,12.1 10.9,13 12,13M16.5,15C16.5,13.9 15.6,13 14.5,13C13.4,13 12.5,13.9 12.5,15C12.5,16.1 13.4,17 14.5,17C15.6,17 16.5,16.1 16.5,15M19,11C19,9.9 18.1,9 17,9C15.9,9 15,9.9 15,11C15,12.1 15.9,13 17,13C18.1,13 19,12.1 19,11" style="fill-rule:nonzero;"/>
    </g>
    <g id="lock-open-outline.svg" transform="matrix(0.479167,0,0,0.479167,19.75,12)">
        <g transform="matrix(1,0,0,1,-12,-12)">
            <path d="M18,20L18,10L6,10L6,20L18,20M18,8C19.097,8 20,8.903 20,10L20,20C20,21.097 19.097,22 18,22L6,22C4.89,22 4,21.1 4,20L4,10C4,8.903 4.903,8 6,8L15,8L15,6C15,4.354 13.646,3 12,3C10.354,3 9,4.354 9,6L7,6C7,3.257 9.257,1 12,1C14.743,1 17,3.257 17,6L17,8L18,8M12,17C10.903,17 10,16.097 10,15C10,13.903 10.903,13 12,13C13.097,13 14,13.903 14,15C14,16.097 13.097,17 12,17Z" style="fill-rule:nonzero;"/>
        </g>
    </g>
</svg>
