<?xml version="1.0" encoding="UTF-8" standalone="no"?>
<!DOCTYPE svg PUBLIC "-//W3C//DTD SVG 1.1//EN" "http://www.w3.org/Graphics/SVG/1.1/DTD/svg11.dtd">
<svg width="100%" height="100%" viewBox="0 0 24 24" version="1.1" xmlns="http://www.w3.org/2000/svg" xmlns:xlink="http://www.w3.org/1999/xlink" xml:space="preserve" xmlns:serif="http://www.serif.com/" style="fill-rule:evenodd;clip-rule:evenodd;stroke-linejoin:round;stroke-miterlimit:2;">
    <path d="M19,14L16,14L16,16L19,16L19,14M22,21L3,21L3,11L11,3L21,3C21.549,3 22,3.451 22,4L22,21M11.83,5L5.83,11L20,11L20,5L11.83,5Z" style="fill-rule:nonzero;"/>
    <g transform="matrix(1,0,0,1,2,0)">
        <path d="M5,11L9,7L18,7L18,8L10,8L7,11L5,11Z"/>
    </g>
</svg>
