<?xml version="1.0" encoding="UTF-8" standalone="no"?>
<!DOCTYPE svg PUBLIC "-//W3C//DTD SVG 1.1//EN" "http://www.w3.org/Graphics/SVG/1.1/DTD/svg11.dtd">
<svg width="100%" height="100%" viewBox="0 0 24 24" version="1.1" xmlns="http://www.w3.org/2000/svg" xmlns:xlink="http://www.w3.org/1999/xlink" xml:space="preserve" xmlns:serif="http://www.serif.com/" style="fill-rule:evenodd;clip-rule:evenodd;stroke-linejoin:round;stroke-miterlimit:2;">
    <g transform="matrix(0.75,0,0,0.75,3,7.5)">
        <path d="M13,19.92C14.8,19.7 16.35,18.95 17.65,17.65C18.95,16.35 19.7,14.8 19.92,13L16.92,13C16.7,14 16.24,14.84 15.54,15.54C14.84,16.24 14,16.7 13,16.92L13,19.92M10,8L14,8L17,11L19.92,11C19.67,9.05 18.79,7.38 17.27,6C15.76,4.66 14,4 12,4C10,4 8.24,4.66 6.73,6C5.21,7.38 4.33,9.05 4.08,11L7,11L10,8M11,19.92L11,16.92C10,16.7 9.16,16.24 8.46,15.54C7.76,14.84 7.3,14 7.08,13L4.08,13C4.3,14.77 5.05,16.3 6.35,17.6C7.65,18.9 9.2,19.67 11,19.92M12,2C14.75,2 17.1,3 19.05,4.95C21,6.9 22,9.25 22,12C22,14.75 21,17.1 19.05,19.05C17.1,21 14.75,22 12,22C9.25,22 6.9,21 4.95,19.05C3,17.1 2,14.75 2,12C2,9.25 3,6.9 4.95,4.95C6.9,3 9.25,2 12,2Z" style="fill-rule:nonzero;"/>
    </g>
    <g transform="matrix(0.615385,0,0,0.615385,2.15385,-1.23077)">
        <path d="M13.7,3.4L12.3,6.8L13.7,10.2L11.7,15L10,13.6L11.4,10.2L10,6.8L12,2L13.7,3.4"/>
        <path d="M17.9,3.4L16.5,6.8L17.9,10.2L15.9,15L14.2,13.6L15.6,10.2L14.2,6.8L16.2,2L17.9,3.4"/>
        <path d="M22,3.4L20.6,6.8L22,10.2L20,15L18.3,13.6L19.7,10.2L18.3,6.8L20.3,2L22,3.4"/>
    </g>
</svg>
