<?xml version="1.0" encoding="UTF-8" standalone="no"?>
<!DOCTYPE svg PUBLIC "-//W3C//DTD SVG 1.1//EN" "http://www.w3.org/Graphics/SVG/1.1/DTD/svg11.dtd">
<svg width="100%" height="100%" viewBox="0 0 24 24" version="1.1" xmlns="http://www.w3.org/2000/svg" xmlns:xlink="http://www.w3.org/1999/xlink" xml:space="preserve" xmlns:serif="http://www.serif.com/" style="fill-rule:evenodd;clip-rule:evenodd;stroke-linejoin:round;stroke-miterlimit:2;">
    <path d="M5,16L7,16C8.097,16 9,16.903 9,18L9,24L7,24L7,22L5,22L5,24L3,24L3,18C3,16.903 3.903,16 5,16ZM5,18L5,20L7,20L7,18L5,18Z"/>
    <g transform="matrix(1,0,0,1,-0.0930781,-8.93125)">
        <path d="M15,23C14.7,23 14.5,22.9 14.3,22.7C13.9,22.3 14,21.7 14.4,21.3C14.9,20.9 16.1,19.5 16.1,18.4C16.1,17.8 15.7,17.2 15.3,16.5C14.8,15.7 14.1,14.7 14.1,13.5C14.1,11.2 15.4,10.3 15.6,10.2C16.1,9.9 16.7,10.1 17,10.5C17.3,11 17.1,11.6 16.7,11.9C16.7,11.9 16.2,12.3 16.2,13.5C16.2,14.1 16.6,14.7 17,15.4C17.5,16.2 18.2,17.2 18.2,18.4C18.2,20.6 16.1,22.6 15.9,22.8C15.5,22.9 15.2,23 15,23"/>
    </g>
    <g transform="matrix(1,0,0,1,-0.0930781,-8.93125)">
        <path d="M11.7,22.7C11.9,22.5 14,20.5 14,18.3C14,17.1 13.4,16.1 12.8,15.3C12.4,14.6 12,14 12,13.4C12,12.2 12.5,11.8 12.5,11.8C13,11.5 13.1,10.9 12.8,10.4C12.5,9.9 11.9,9.8 11.4,10.1C11.2,10.2 9.9,11.1 9.9,13.4C9.9,14.6 10.5,15.6 11.1,16.4C11.5,17.1 11.9,17.7 11.9,18.3C11.9,19.4 10.7,20.8 10.2,21.2C9.8,21.6 9.8,22.2 10.1,22.6C10.3,22.8 10.6,22.9 10.8,22.9C11.2,23 11.5,22.9 11.7,22.7"/>
    </g>
    <g transform="matrix(1,0,0,1,-0.0930781,-8.93125)">
        <path d="M7.7,22.7C7.9,22.5 10,20.5 10,18.3C10,17.1 9.4,16.1 8.8,15.3C8.4,14.7 8,14.1 8,13.4C8,12.2 8.5,11.8 8.5,11.8C9,11.5 9.1,10.9 8.8,10.4C8.6,10 7.9,9.9 7.5,10.1C7.3,10.2 6,11.1 6,13.4C6,14.6 6.6,15.6 7.2,16.4C7.6,17.1 8,17.7 8,18.3C8,19.4 6.8,20.8 6.3,21.2C5.9,21.6 5.9,22.2 6.2,22.6C6.5,22.9 6.7,23 7,23C7.2,23 7.5,22.9 7.7,22.7"/>
    </g>
    <path d="M12.93,16L15,16L12.07,24L10,24L12.93,16"/>
    <path d="M18,16L21,16L21,18L18,18L18,22L21,22L21,24L18,24C16.903,24 16,23.097 16,22L16,18C16,16.903 16.903,16 18,16Z"/>
</svg>
