<?xml version="1.0" encoding="UTF-8" standalone="no"?>
<!DOCTYPE svg PUBLIC "-//W3C//DTD SVG 1.1//EN" "http://www.w3.org/Graphics/SVG/1.1/DTD/svg11.dtd">
<svg width="100%" height="100%" viewBox="0 0 24 24" version="1.1" xmlns="http://www.w3.org/2000/svg" xmlns:xlink="http://www.w3.org/1999/xlink" xml:space="preserve" xmlns:serif="http://www.serif.com/" style="fill-rule:evenodd;clip-rule:evenodd;stroke-linejoin:round;stroke-miterlimit:2;">
    <path d="M17.5,2C20,2 22,4 22,6.5C22,9.87 17.5,14.86 17.5,14.86C17.5,14.86 13,9.87 13,6.5C13,4 15,2 17.5,2ZM17.5,8.11C18.383,8.11 19.11,7.383 19.11,6.5C19.11,5.61 18.39,4.89 17.5,4.89C16.61,4.89 15.89,5.61 15.89,6.5C15.89,7.383 16.617,8.11 17.5,8.11Z"/>
    <path d="M17.5,16C18.78,16 19.92,16.8 20.35,18C20.9,19.56 20.08,21.28 18.5,21.83C16.96,22.38 15.24,21.56 14.69,20L9.32,20C9,20.85 8.35,21.53 7.5,21.83C5.93,22.38 4.22,21.56 3.66,20C3.11,18.44 3.93,16.72 5.5,16.17C7.05,15.62 8.77,16.44 9.32,18L14.68,18C15.1,16.8 16.23,16 17.5,16ZM17.5,20.5C18.323,20.5 19,19.823 19,19C19,18.177 18.323,17.5 17.5,17.5C16.677,17.5 16,18.177 16,19C16,19.823 16.677,20.5 17.5,20.5Z"/>
    <g transform="matrix(0.550054,0,0,0.550054,-0.101196,1.82935)">
        <path d="M12,20C16.389,20 20,16.389 20,12C20,7.611 16.389,4 12,4C7.611,4 4,7.611 4,12C4,16.389 7.611,20 12,20M12,2C17.486,2 22,6.514 22,12C22,17.486 17.486,22 12,22C6.47,22 2,17.5 2,12C2,6.514 6.514,2 12,2M12.5,7L12.5,12.25L17,14.92L16.25,16.15L11,13L11,7L12.5,7Z" style="fill-rule:nonzero;"/>
    </g>
</svg>
