<?xml version="1.0" encoding="UTF-8" standalone="no"?>
<!DOCTYPE svg PUBLIC "-//W3C//DTD SVG 1.1//EN" "http://www.w3.org/Graphics/SVG/1.1/DTD/svg11.dtd">
<svg width="100%" height="100%" viewBox="0 0 24 24" version="1.1" xmlns="http://www.w3.org/2000/svg" xmlns:xlink="http://www.w3.org/1999/xlink" xml:space="preserve" xmlns:serif="http://www.serif.com/" style="fill-rule:evenodd;clip-rule:evenodd;stroke-linejoin:round;stroke-miterlimit:2;">
    <path d="M17.5,2C20,2 22,4 22,6.5C22,9.87 17.5,14.86 17.5,14.86C17.5,14.86 13,9.87 13,6.5C13,4 15,2 17.5,2ZM17.5,8.11C18.383,8.11 19.11,7.383 19.11,6.5C19.11,5.61 18.39,4.89 17.5,4.89C16.61,4.89 15.89,5.61 15.89,6.5C15.89,7.383 16.617,8.11 17.5,8.11Z"/>
    <path d="M17.5,16C18.78,16 19.92,16.8 20.35,18C20.9,19.56 20.08,21.28 18.5,21.83C16.96,22.38 15.24,21.56 14.69,20L9.32,20C9,20.85 8.35,21.53 7.5,21.83C5.93,22.38 4.22,21.56 3.66,20C3.11,18.44 3.93,16.72 5.5,16.17C7.05,15.62 8.77,16.44 9.32,18L14.68,18C15.1,16.8 16.23,16 17.5,16ZM17.5,20.5C18.323,20.5 19,19.823 19,19C19,18.177 18.323,17.5 17.5,17.5C16.677,17.5 16,18.177 16,19C16,19.823 16.677,20.5 17.5,20.5Z"/>
    <g transform="matrix(0.55,0,0,0.55,-0.1,1.23)">
        <path d="M4,4L20,4C21.097,4 22,4.903 22,6L22,18C22,19.097 21.097,20 20,20L4,20C2.903,20 2,19.097 2,18L2,6C2,4.903 2.903,4 4,4M4,6L4,18L11,18L11,6L4,6M20,18L20,6L18.76,6C19,6.54 18.95,7.07 18.95,7.13C18.88,7.8 18.41,8.5 18.24,8.75L15.91,11.3L19.23,11.28L19.24,12.5L14.04,12.47L14,11.47C14,11.47 17.05,8.24 17.2,7.95C17.34,7.67 17.91,6 16.5,6C15.27,6.05 15.41,7.3 15.41,7.3L13.87,7.31C13.87,7.31 13.88,6.65 14.25,6L13,6L13,18L15.58,18L15.57,17.14L16.54,17.13C16.54,17.13 17.45,16.97 17.46,16.08C17.5,15.08 16.65,15.08 16.5,15.08C16.37,15.08 15.43,15.13 15.43,15.95L13.91,15.95C13.91,15.95 13.95,13.89 16.5,13.89C19.1,13.89 18.96,15.91 18.96,15.91C18.96,15.91 19,17.16 17.85,17.63L18.37,18L20,18M8.92,16L7.42,16L7.42,10.2L5.62,10.76L5.62,9.53L8.76,8.41L8.92,8.41L8.92,16Z" style="fill-rule:nonzero;"/>
    </g>
</svg>
