<?xml version="1.0" encoding="UTF-8" standalone="no"?>
<!DOCTYPE svg PUBLIC "-//W3C//DTD SVG 1.1//EN" "http://www.w3.org/Graphics/SVG/1.1/DTD/svg11.dtd">
<svg width="100%" height="100%" viewBox="0 0 24 24" version="1.1" xmlns="http://www.w3.org/2000/svg" xmlns:xlink="http://www.w3.org/1999/xlink" xml:space="preserve" xmlns:serif="http://www.serif.com/" style="fill-rule:evenodd;clip-rule:evenodd;stroke-linejoin:round;stroke-miterlimit:2;">
    <path d="M16,20L8,20L8,6L16,6M16.67,4L15,4L15,2L9,2L9,4L7.33,4C6.6,4 6,4.6 6,5.33L6,20.67C6,21.4 6.6,22 7.33,22L16.67,22C17.4,22 18,21.4 18,20.67L18,5.33C18,4.6 17.4,4 16.67,4Z" style="fill-rule:nonzero;"/>
    <path d="M15,16L9,16L9,19L15,19L15,16"/>
    <rect x="9" y="11.5" width="6" height="3"/>
    <g transform="matrix(1,0,0,1,-5.94,-11)">
        <clipPath id="_clip1">
            <rect x="14.94" y="17" width="6" height="4.5"/>
        </clipPath>
        <g clip-path="url(#_clip1)">
            <path d="M14.94,18.5L17.94,21.5L20.94,18.5L18.94,18.5L18.94,14.5L16.94,14.5L16.94,18.5L14.94,18.5" style="fill-rule:nonzero;"/>
        </g>
    </g>
</svg>
