<?xml version="1.0" encoding="UTF-8" standalone="no"?>
<!DOCTYPE svg PUBLIC "-//W3C//DTD SVG 1.1//EN" "http://www.w3.org/Graphics/SVG/1.1/DTD/svg11.dtd">
<svg width="100%" height="100%" viewBox="0 0 24 24" version="1.1" xmlns="http://www.w3.org/2000/svg" xmlns:xlink="http://www.w3.org/1999/xlink" xml:space="preserve" xmlns:serif="http://www.serif.com/" style="fill-rule:evenodd;clip-rule:evenodd;stroke-linejoin:round;stroke-miterlimit:2;">
    <path d="M16,20L8,20L8,6L16,6M16.67,4L15,4L15,2L9,2L9,4L7.33,4C6.6,4 6,4.6 6,5.33L6,20.67C6,21.4 6.6,22 7.33,22L16.67,22C17.4,22 18,21.4 18,20.67L18,5.33C18,4.6 17.4,4 16.67,4Z" style="fill-rule:nonzero;"/>
    <g id="map-marker-distance.svg" transform="matrix(0.375,0,0,0.375,12,15.5)">
        <g transform="matrix(1,0,0,1,-12,-12)">
            <path d="M6.5,8.11C5.61,8.11 4.89,7.39 4.89,6.5C4.89,5.617 5.617,4.89 6.5,4.89C7.39,4.89 8.11,5.61 8.11,6.5C8.11,7.383 7.383,8.11 6.5,8.11M6.5,2C4,2 2,4 2,6.5C2,9.87 6.5,14.86 6.5,14.86C6.5,14.86 11,9.87 11,6.5C11,4 9,2 6.5,2M17.5,8.11C16.617,8.11 15.89,7.383 15.89,6.5C15.89,5.61 16.61,4.89 17.5,4.89C18.39,4.89 19.11,5.61 19.11,6.5C19.11,7.383 18.383,8.11 17.5,8.11M17.5,2C15,2 13,4 13,6.5C13,9.87 17.5,14.86 17.5,14.86C17.5,14.86 22,9.87 22,6.5C22,4 20,2 17.5,2M17.5,16C16.23,16 15.1,16.8 14.68,18L9.32,18C8.77,16.44 7.05,15.62 5.5,16.17C3.93,16.72 3.11,18.44 3.66,20C4.22,21.56 5.93,22.38 7.5,21.83C8.35,21.53 9,20.85 9.32,20L14.69,20C15.24,21.56 16.96,22.38 18.5,21.83C20.08,21.28 20.9,19.56 20.35,18C19.92,16.8 18.78,16 17.5,16M17.5,20.5C16.677,20.5 16,19.823 16,19C16,18.177 16.677,17.5 17.5,17.5C18.323,17.5 19,18.177 19,19C19,19.823 18.323,20.5 17.5,20.5Z" style="fill-rule:nonzero;"/>
        </g>
    </g>
</svg>
