<?xml version="1.0" encoding="UTF-8" standalone="no"?>
<!DOCTYPE svg PUBLIC "-//W3C//DTD SVG 1.1//EN" "http://www.w3.org/Graphics/SVG/1.1/DTD/svg11.dtd">
<svg width="100%" height="100%" viewBox="0 0 24 24" version="1.1" xmlns="http://www.w3.org/2000/svg" xmlns:xlink="http://www.w3.org/1999/xlink" xml:space="preserve" xmlns:serif="http://www.serif.com/" style="fill-rule:evenodd;clip-rule:evenodd;stroke-linejoin:round;stroke-miterlimit:2;">
    <path d="M17,4.76C18.86,6.19 20,8.61 20,11C20,14 18.33,16.64 15.86,18L8.14,18C5.67,16.64 4,14 4,11C4,8.61 5.09,6.17 7,4.76L7,2L5,2L5,3.86C3.15,5.68 2,8.2 2,11C2,13.8 3.15,16.32 5,18.14L5,22L7,22L7,20L9,20L9,22L11,22L11,20L13,20L13,22L15,22L15,20L17,20L17,22L19,22L19,18.14C20.85,16.32 22,13.8 22,11C22,8.2 20.85,5.68 19,3.86L19,2L17,2L17,4.76Z"/>
</svg>
