<?xml version="1.0" encoding="UTF-8" standalone="no"?>
<!DOCTYPE svg PUBLIC "-//W3C//DTD SVG 1.1//EN" "http://www.w3.org/Graphics/SVG/1.1/DTD/svg11.dtd">
<svg width="100%" height="100%" viewBox="0 0 24 24" version="1.1" xmlns="http://www.w3.org/2000/svg" xmlns:xlink="http://www.w3.org/1999/xlink" xml:space="preserve" xmlns:serif="http://www.serif.com/" style="fill-rule:evenodd;clip-rule:evenodd;stroke-linejoin:round;stroke-miterlimit:2;">
    <path d="M23,16L19,12L19,15L15,15L15,17L19,17L19,20L23,16Z"/>
    <g transform="matrix(1,0,0,1,-4.04082,8.88178e-16)">
        <path d="M16,20L8,20L8,6L16,6M16.67,4L15,4L15,2L9,2L9,4L7.33,4C6.6,4 6,4.6 6,5.33L6,20.67C6,21.4 6.6,22 7.33,22L16.67,22C17.4,22 18,21.4 18,20.67L18,5.33C18,4.6 17.4,4 16.67,4Z" style="fill-rule:nonzero;"/>
    </g>
</svg>
