<?xml version="1.0" encoding="UTF-8"?>
<svg width="64px" height="64px" viewBox="0 0 64 64" version="1.1" xmlns="http://www.w3.org/2000/svg" xmlns:xlink="http://www.w3.org/1999/xlink">
    <title>meter_power</title>
    <g id="meter_power" stroke="none" stroke-width="1" fill="none" fill-rule="evenodd">
        <path d="M46,8 C49.3137085,8 52,10.6862915 52,14 L52,25 C53.1045695,25 54,25.8954305 54,27 C54,28.1045695 53.1045695,29 52,29 L52,40 C52,43.3137085 49.3137085,46 46,46 C45.9758941,46.6425317 45.6459663,47.2360225 45.1094004,47.5937331 L43.4452998,48.7031335 C43.1671011,48.8885992 43,49.2008306 43,49.5351838 L43,54 C43,55.1045695 42.1045695,56 41,56 C39.8954305,56 39,55.1045695 39,54 L39,49.5351838 C39,49.2008306 38.8328989,48.8885992 38.5547002,48.7031335 L36.8905996,47.5937331 C36.7440816,47.4960544 36.6129717,47.3807948 36.499315,47.251776 C36.3870283,47.3807948 36.2559184,47.4960544 36.1094004,47.5937331 L34.4452998,48.7031335 C34.1671011,48.8885992 34,49.2008306 34,49.5351838 L34,54 C34,55.1045695 33.1045695,56 32,56 C30.8954305,56 30,55.1045695 30,54 L30,49.5351838 C30,49.2008306 29.8328989,48.8885992 29.5547002,48.7031335 L27.8905996,47.5937331 C27.7440816,47.4960544 27.6129717,47.3807948 27.499315,47.251776 C27.3870283,47.3807948 27.2559184,47.4960544 27.1094004,47.5937331 L25.4452998,48.7031335 C25.1671011,48.8885992 25,49.2008306 25,49.5351838 L25,54 C25,55.1045695 24.1045695,56 23,56 C21.8954305,56 21,55.1045695 21,54 L21,49.5351838 C21,49.2008306 20.8328989,48.8885992 20.5547002,48.7031335 L18.8905996,47.5937331 C18.3805687,47.2537125 18.0572434,46.7006553 18.0068977,46.0957662 L18.003,46 C14.6862915,46 12,43.3137085 12,40 L12,29 C10.8954305,29 10,28.1045695 10,27 C10,25.9456382 10.8158778,25.0818349 11.8507377,25.0054857 L12,25 L12,14 C12,10.6862915 14.6862915,8 18,8 L46,8 Z M46,12 L18,12 C16.8954305,12 16,12.8954305 16,14 L16,40 C16,41.1045695 16.8954305,42 18,42 L46,42 C47.1045695,42 48,41.1045695 48,40 L48,14 C48,12.8954305 47.1045695,12 46,12 Z M35.2608594,18.0482889 C35.6517493,18.1940257 35.8487281,18.6244038 35.7008238,19.0095653 L33.406,25.125 L37.2432475,25.125 C37.3886852,25.125 37.5302344,25.1662722 37.6514389,25.2427773 L37.7382706,25.3066679 C38.0543821,25.5760551 38.0890117,26.0469402 37.815618,26.3584192 L29.5793156,35.7420832 C29.3716196,35.9787123 29.0360979,36.0624267 28.7391406,35.9517111 C28.3482507,35.8059743 28.1512719,35.3755962 28.2991762,34.9904347 L30.593,28.875 L26.7567525,28.875 C26.6113148,28.875 26.4697656,28.8337278 26.3485611,28.7572227 L26.2617294,28.6933321 C25.9456179,28.4239449 25.9109883,27.9530598 26.184382,27.6415808 L34.4206844,18.2579168 C34.6283804,18.0212877 34.9639021,17.9375733 35.2608594,18.0482889 Z" id="Shape" fill="#000000" fill-rule="nonzero"/>
    </g>
</svg>