<?xml version="1.0" encoding="UTF-8" standalone="no"?>
<!DOCTYPE svg PUBLIC "-//W3C//DTD SVG 1.1//EN" "http://www.w3.org/Graphics/SVG/1.1/DTD/svg11.dtd">
<svg width="100%" height="100%" viewBox="0 0 24 24" version="1.1" xmlns="http://www.w3.org/2000/svg" xmlns:xlink="http://www.w3.org/1999/xlink" xml:space="preserve" xmlns:serif="http://www.serif.com/" style="fill-rule:evenodd;clip-rule:evenodd;stroke-linejoin:round;stroke-miterlimit:1.5;">
    <g transform="matrix(1,0,0,1,-1,1.065)">
        <path d="M9.29,3.25L5.16,6.72L4,5.34L8.14,1.87L9.29,3.25" style="fill-rule:nonzero;"/>
    </g>
    <g transform="matrix(1,0,0,1,-1,1.065)">
        <path d="M22,5.35L20.84,6.73L16.7,3.25L17.86,1.87L22,5.35" style="fill-rule:nonzero;"/>
    </g>
    <g transform="matrix(1,0,0,1,-1,1.065)">
        <path d="M13,4C17.389,4 21,7.611 21,12C21,16.389 17.389,20 13,20C8.611,20 5,16.389 5,12C5,7.611 8.611,4 13,4ZM13,6C9.708,6 7,8.708 7,12C7,15.292 9.708,18 13,18C16.292,18 19,15.292 19,12C19,8.708 16.292,6 13,6Z" style="fill-rule:nonzero;"/>
    </g>
    <g transform="matrix(1,0,0,1,-1,1.065)">
        <path d="M12,7.5L13.5,7.5L13.5,12.03L16.72,13.5L16.1,14.86L12,13L12,7.5" style="fill-rule:nonzero;"/>
    </g>
    <g transform="matrix(-1.08774,0,0,1.38312,28.0264,-4.91563)">
        <path d="M6,9C4.286,11.581 4.323,14.249 6,17" style="fill:none;stroke:black;stroke-width:1.21px;"/>
    </g>
    <g transform="matrix(-0.786436,0,0,1,24.7186,0.065)">
        <path d="M6,9C4.286,11.581 4.323,14.249 6,17" style="fill:none;stroke:black;stroke-width:1.67px;"/>
    </g>
    <g transform="matrix(1.08774,0,0,1.38312,-4.14331,-4.91563)">
        <path d="M6,9C4.286,11.581 4.323,14.249 6,17" style="fill:none;stroke:black;stroke-width:1.21px;"/>
    </g>
    <g transform="matrix(0.786436,0,0,1,-0.83549,0.065)">
        <path d="M6,9C4.286,11.581 4.323,14.249 6,17" style="fill:none;stroke:black;stroke-width:1.67px;"/>
    </g>
</svg>
