<?xml version="1.0" encoding="UTF-8" standalone="no"?>
<!DOCTYPE svg PUBLIC "-//W3C//DTD SVG 1.1//EN" "http://www.w3.org/Graphics/SVG/1.1/DTD/svg11.dtd">
<svg width="100%" height="100%" viewBox="0 0 500 500" version="1.1" xmlns="http://www.w3.org/2000/svg" xmlns:xlink="http://www.w3.org/1999/xlink" xml:space="preserve" xmlns:serif="http://www.serif.com/" style="fill-rule:evenodd;clip-rule:evenodd;stroke-linejoin:round;stroke-miterlimit:2;">
    <g transform="matrix(0.152507,0,0,0.152507,250,250)">
        <g transform="matrix(1,0,0,1,-1491,-1500)">
            <clipPath id="_clip1">
                <rect x="0" y="0" width="2982" height="3000"/>
            </clipPath>
            <g clip-path="url(#_clip1)">
                <g transform="matrix(1.40872,0,0,1.40872,-1186.27,-1035.49)">
                    <path d="M2397.21,1371.79L2208.5,1533.54L2755.93,1580.12L2958.91,1371.79L2397.21,1371.79Z"/>
                </g>
                <g transform="matrix(1.40872,0,0,1.40872,-1186.27,-1035.49)">
                    <path d="M1802.76,1499.02L2107.87,1524.98L2286.59,1371.79L1975.84,1371.79L1802.76,1499.02Z"/>
                </g>
                <g transform="matrix(1.40872,0,0,1.40872,-1186.27,-1035.49)">
                    <path d="M1876.38,1723.4L2031.04,1590.84L1714.5,1563.9L1578.78,1663.67L1876.38,1723.4Z"/>
                </g>
                <g transform="matrix(1.40872,0,0,1.40872,-1186.27,-1035.49)">
                    <path d="M1966.01,1741.38L2495.29,1847.62L2690.79,1646.97L2131.66,1599.4L1966.01,1741.38Z"/>
                </g>
                <g transform="matrix(1.40872,0,0,1.40872,-1186.27,-1035.49)">
                    <path d="M1896.7,1800.79L1653.52,2009.23L2190.63,2160.29L2420.93,1923.93C2422.11,1922.51 2423.41,1921.18 2424.78,1919.98L2435.53,1908.94L1896.7,1800.79Z"/>
                </g>
                <g transform="matrix(1.40872,0,0,1.40872,-1186.27,-1035.49)">
                    <path d="M1259.46,1898.4L1570.23,1985.8L1807.07,1782.8L1500.44,1721.25L1259.46,1898.4Z"/>
                </g>
                <g transform="matrix(1.40872,0,0,1.40872,-1186.27,-1035.49)">
                    <path d="M1182.05,2318.52L1504.49,2042.14L1185.83,1952.52L842.09,2205.2L1182.05,2318.52Z"/>
                </g>
                <g transform="matrix(1.40872,0,0,1.40872,-1186.27,-1035.49)">
                    <path d="M1587.78,2065.57L1261.69,2345.07L1826.99,2533.5L2087.42,2266.21C2088.57,2264.84 2089.82,2263.57 2091.12,2262.41L2133.39,2219.02L1587.78,2065.57Z"/>
                </g>
            </g>
        </g>
    </g>
</svg>
