<?xml version="1.0" encoding="UTF-8" standalone="no"?>
<!DOCTYPE svg PUBLIC "-//W3C//DTD SVG 1.1//EN" "http://www.w3.org/Graphics/SVG/1.1/DTD/svg11.dtd">
<svg width="100%" height="100%" viewBox="0 0 500 500" version="1.1" xmlns="http://www.w3.org/2000/svg" xmlns:xlink="http://www.w3.org/1999/xlink" xml:space="preserve" xmlns:serif="http://www.serif.com/" style="fill-rule:evenodd;clip-rule:evenodd;stroke-linejoin:round;stroke-miterlimit:2;">
    <g transform="matrix(0.284275,0,0,0.284275,-24.7518,1.06671)">
        <path d="M966.597,1751.36L1212.66,367.49C1447.2,367.49 1521.18,393.209 1531.86,498.186C1531.86,498.186 1689.2,439.521 1768.55,320.374C1458.89,176.882 1147.75,170.411 1147.75,170.411L966.188,391.544L966.597,391.517L785.04,170.376C785.04,170.376 473.891,176.854 164.268,320.346C243.553,439.493 400.952,498.158 400.952,498.158C411.696,393.174 485.585,367.456 718.552,367.289L966.597,1751.36Z"/>
    </g>
    <g transform="matrix(0.284275,0,0,0.284275,-24.7518,1.06671)">
        <path d="M966.5,106.537C1216.82,104.623 1503.34,145.261 1796.65,273.098C1835.85,202.538 1845.93,171.354 1845.93,171.354C1525.3,44.501 1225.03,1.089 966.465,-0C707.912,1.089 407.659,44.508 87.07,171.354C87.07,171.354 101.372,209.766 136.316,273.098C429.57,145.261 716.138,104.623 966.465,106.537L966.5,106.537Z"/>
    </g>
</svg>
