<?xml version="1.0" encoding="UTF-8" standalone="no"?>
<!DOCTYPE svg PUBLIC "-//W3C//DTD SVG 1.1//EN" "http://www.w3.org/Graphics/SVG/1.1/DTD/svg11.dtd">
<svg width="100%" height="100%" viewBox="0 0 2084 2084" version="1.1" xmlns="http://www.w3.org/2000/svg" xmlns:xlink="http://www.w3.org/1999/xlink" xml:space="preserve" xmlns:serif="http://www.serif.com/" style="fill-rule:evenodd;clip-rule:evenodd;stroke-linejoin:round;stroke-miterlimit:2;">
    <g transform="matrix(1.06667,0,0,1.06667,-20.7711,-39.2145)">
        <path d="M459,1046C459,1046 518,1018 588,1014C699.578,1007.62 1128.63,1010.73 1128.63,1010.73L1121.1,1017.69C1121.1,1017.69 584.999,1021.99 574.098,1022.9C525,1027 483,1045 483,1045L459,1046Z"/>
    </g>
    <g transform="matrix(1.06667,0,0,1.06667,-20.7711,-39.2145)">
        <path d="M508,1068L589,1067L529,1100C523.874,1088.57 516.696,1077.97 508,1068Z"/>
    </g>
    <g transform="matrix(1.06667,0,0,1.06667,-20.7711,-39.2145)">
        <path d="M914,972C1262.51,958.458 1506.22,946.396 1561,937C1586.35,927.156 1611,911.686 1635,891L1684,892C1677.23,907.337 1641.73,926.472 1573,950C1354.72,967.559 1135.02,974.579 914,972Z"/>
    </g>
    <g transform="matrix(1.06667,0,0,1.06667,-20.7711,-39.2145)">
        <path d="M1310,987L1862.34,975.658C1681,958 1456.07,962.588 1310,987Z"/>
    </g>
    <g transform="matrix(1.06667,0,0,1.06667,-20.7711,-39.2145)">
        <path d="M1913.07,1024.07C1907.89,991.404 1908.79,967.696 1921.69,961.626C1927.58,955.121 1923.83,952.04 1917.26,949.958C1916.63,948.519 1837.07,926.948 1739,891C1505.68,805.477 1322.8,771.863 1152.54,774.816C980.82,773.658 856.193,812.698 787,848C756.838,863.388 695.875,895.848 638,931.759C592.298,960.117 550.497,970.591 549.628,966.748L595.603,967.825C626.521,953.398 647.836,947.905 684,924C802,846 894.682,814.877 993.213,799.165C1203.03,779.324 1393.25,804.938 1572.5,854.116C1704.11,895.764 1806.35,931.988 1873.27,961.689C1889.06,975.345 1902.16,996.586 1913.07,1024.07Z"/>
    </g>
    <g transform="matrix(1.06667,0,0,1.06667,-20.7711,-39.2145)">
        <path d="M80,1175C79.42,1179.45 64.393,1134.64 68,1132C169,1058 274,1011 409,990C430.261,986.693 467.908,986.38 489,986C822,980 819,980 819,980L606,998C606,998 525.939,997.925 464,1002C312,1012 158,1084 93,1142C84.179,1149.87 83,1152 80,1175Z"/>
    </g>
</svg>
