<?xml version="1.0" encoding="UTF-8" standalone="no"?>
<!DOCTYPE svg PUBLIC "-//W3C//DTD SVG 1.1//EN" "http://www.w3.org/Graphics/SVG/1.1/DTD/svg11.dtd">
<svg width="100%" height="100%" viewBox="0 0 2084 2084" version="1.1" xmlns="http://www.w3.org/2000/svg" xmlns:xlink="http://www.w3.org/1999/xlink" xml:space="preserve" xmlns:serif="http://www.serif.com/" style="fill-rule:evenodd;clip-rule:evenodd;stroke-linejoin:round;stroke-miterlimit:2;">
    <g transform="matrix(1.06667,0,0,1.06667,-20.7711,-39.2145)">
        <path d="M497.597,1066.14L630.722,1066.14L539.784,1111.26C534.659,1099.83 506.293,1076.11 497.597,1066.14Z"/>
    </g>
    <g transform="matrix(1.06667,0,0,1.06667,-20.7711,-39.2145)">
        <path d="M871.659,980C871.659,980 1497.51,936.782 1552.28,927.387C1577.63,917.543 1611,911.686 1635,891L1695.72,910.512C1688.95,925.849 1658.52,932.921 1589.78,956.449C1409.71,970.934 942.908,995.824 942.908,995.824L871.659,980Z"/>
    </g>
    <g transform="matrix(1.06667,0,0,1.06667,-20.7711,-39.2145)">
        <path d="M1912.28,1036.14C1907.1,1003.47 1914.38,968.144 1927.28,962.074C1933.17,955.568 1927.29,941.082 1920.72,939C1944.06,948.386 1807.76,907.56 1737.67,880.39C1505.97,790.569 1318.82,762.58 1148.56,765.532C976.841,764.375 844.257,807.393 775.064,842.695C744.902,858.083 673.329,894.521 615.454,930.433C569.752,958.79 514.688,971.917 513.819,968.074L647.597,964.989C678.514,950.563 679.946,942.436 716.971,919.887C836.864,846.869 909.697,834.733 1006.66,814.887C1216.47,795.046 1377.72,810.708 1556.97,859.887C1688.59,901.535 1785.37,934.248 1852.28,963.949C1868.07,977.605 1901.38,1008.66 1912.28,1036.14Z"/>
    </g>
    <g transform="matrix(1.06667,0,0,1.06667,-20.7711,-39.2145)">
        <path d="M100.098,1242.39C99.517,1246.84 64.393,1134.64 68,1132C169,1058 274,1011 409,990C430.261,986.693 467.908,986.38 489,986C822,980 819,980 819,980L672.909,1001.45C672.909,1001.45 540.786,1026.44 478.847,1030.51C326.847,1040.51 200.723,1093.45 135.723,1151.45C126.901,1159.32 103.098,1219.39 100.098,1242.39Z"/>
    </g>
    <g id="thermometer.svg" transform="matrix(39.0778,0,0,39.0778,1615.07,1615.07)">
        <g transform="matrix(1,0,0,1,-12,-12)">
            <path d="M15,13L15,5C15,3.354 13.646,2 12,2C10.354,2 9,3.354 9,5L9,13C7.742,13.944 7,15.427 7,17C7,19.743 9.257,22 12,22C14.743,22 17,19.743 17,17C17,15.427 16.258,13.944 15,13M12,4C12.549,4 13,4.451 13,5L13,8L11,8L11,5C11,4.451 11.451,4 12,4Z" style="fill-rule:nonzero;"/>
        </g>
    </g>
</svg>
